<?xml version="1.0" encoding="UTF-8"?>
<svg version="1.1" xmlns="http://www.w3.org/2000/svg" width="32" height="32">
<path d="M0 0 C1.48831242 0.00667405 2.97660807 0.01863442 4.46484375 0.03515625 C5.22345703 0.03966797 5.98207031 0.04417969 6.76367188 0.04882812 C8.64326246 0.06064945 10.52281274 0.07858547 12.40234375 0.09765625 C12.73234375 1.41765625 13.06234375 2.73765625 13.40234375 4.09765625 C14.63984375 3.99453125 15.87734375 3.89140625 17.15234375 3.78515625 C20.44860448 3.80853399 21.1830309 3.92768879 23.90234375 6.03515625 C25.91714245 10.14870359 25.75504365 13.60073247 25.40234375 18.09765625 C24.41234375 18.42765625 23.42234375 18.75765625 22.40234375 19.09765625 C22.40234375 20.08765625 22.40234375 21.07765625 22.40234375 22.09765625 C20.75234375 22.42765625 19.10234375 22.75765625 17.40234375 23.09765625 C16.74234375 21.77765625 16.08234375 20.45765625 15.40234375 19.09765625 C12.43234375 19.09765625 9.46234375 19.09765625 6.40234375 19.09765625 C6.40234375 20.08765625 6.40234375 21.07765625 6.40234375 22.09765625 C4.75234375 22.42765625 3.10234375 22.75765625 1.40234375 23.09765625 C1.15484375 22.45828125 0.90734375 21.81890625 0.65234375 21.16015625 C-0.40049058 18.90461716 -0.40049058 18.90461716 -2.67578125 18.46875 C-3.31 18.34628906 -3.94421875 18.22382813 -4.59765625 18.09765625 C-4.62449937 15.28509344 -4.64441813 12.47278384 -4.66015625 9.66015625 C-4.66853516 8.85771484 -4.67691406 8.05527344 -4.68554688 7.22851562 C-4.69417055 5.18470404 -4.64993775 3.14081723 -4.59765625 1.09765625 C-3.59765625 0.09765625 -3.59765625 0.09765625 0 0 Z " fill="#E43F33" transform="translate(5.59765625,4.90234375)"/>
<path d="M0 0 C7.22330097 -0.60194175 7.22330097 -0.60194175 10.5 1.9375 C12.5147987 6.05104734 12.3526999 9.50307622 12 14 C11.01 14.33 10.02 14.66 9 15 C9 15.99 9 16.98 9 18 C7.35 18.33 5.7 18.66 4 19 C3.34 17.68 2.68 16.36 2 15 C1.34 15 0.68 15 0 15 C0 10.05 0 5.1 0 0 Z " fill="#F5BC0B" transform="translate(19,9)"/>
<path d="M0 0 C3.26460973 1.80412643 4.88929795 2.83394693 7 6 C7 6.99 7 7.98 7 9 C6.01 9 5.02 9 4 9 C4 9.99 4 10.98 4 12 C0.7 12.33 -2.6 12.66 -6 13 C-5.34 11.35 -4.68 9.7 -4 8 C-3.01 8 -2.02 8 -1 8 C-1.20625 7.4225 -1.4125 6.845 -1.625 6.25 C-2.08661261 3.48032433 -1.42944945 2.35438733 0 0 Z " fill="#F2C147" transform="translate(9,7)"/>
<path d="M0 0 C1.67542976 0.28604898 3.34385343 0.61781233 5 1 C5 2.65 5 4.3 5 6 C2.625 6.625 2.625 6.625 0 7 C-0.66 6.34 -1.32 5.68 -2 5 C-1.46428571 1.46428571 -1.46428571 1.46428571 0 0 Z " fill="#3F464E" transform="translate(7,21)"/>
<path d="M0 0 C1.67542976 0.28604898 3.34385343 0.61781233 5 1 C5 2.65 5 4.3 5 6 C2.625 6.625 2.625 6.625 0 7 C-0.66 6.34 -1.32 5.68 -2 5 C-1.46428571 1.46428571 -1.46428571 1.46428571 0 0 Z " fill="#4B595D" transform="translate(23,21)"/>
<path d="M0 0 C4.49652778 -0.36458333 4.49652778 -0.36458333 6.8125 1.3125 C8 3 8 3 8 6 C5.36 5.67 2.72 5.34 0 5 C0 3.35 0 1.7 0 0 Z " fill="#50605E" transform="translate(21,11)"/>
<path d="M0 0 C3.26460973 1.80412643 4.88929795 2.83394693 7 6 C7 6.99 7 7.98 7 9 C6.34 9 5.68 9 5 9 C3.9935725 7.33720673 2.99414593 5.67016516 2 4 C1.01 3.34 0.02 2.68 -1 2 C-0.67 1.34 -0.34 0.68 0 0 Z " fill="#FC900A" transform="translate(9,7)"/>
<path d="M0 0 C1.98 0.495 1.98 0.495 4 1 C4 2.65 4 4.3 4 6 C3.01 6 2.02 6 1 6 C1 5.01 1 4.02 1 3 C0.34 3 -0.32 3 -1 3 C-0.67 2.01 -0.34 1.02 0 0 Z " fill="#E3983E" transform="translate(8,10)"/>
<path d="M0 0 C1.32 0 2.64 0 4 0 C3.67 1.65 3.34 3.3 3 5 C2.01 4.67 1.02 4.34 0 4 C0 2.68 0 1.36 0 0 Z " fill="#576872" transform="translate(7,21)"/>
</svg>
